# xmcd
#
# Track frame offsets:
#	150
#	14028
#	37996
#	69373
#	92753
#	115637
#	150550
#	177960
#	197945
#	216905
#
# Disc length: 3207 seconds
#
# Revision: 1
# Processed by: cddbd v1.5.2PL0 Copyright (c) Steve Scherf et al.
# Submitted via: audiograbber 1.83.01
#
DISCID=830c850a
DTITLE=Philippe Laloy - Kind of Pink
DYEAR=2012
DGENRE=Blues
TTITLE0=Breathe
TTITLE1=Wish you were here
TTITLE2=Money
TTITLE3=Goodbey blue sky
TTITLE4=Another brick in the wall (part 2)
TTITLE5=Brain damage
TTITLE6=Us and Them
TTITLE7=Breathe 2
TTITLE8=The great gig in the sky
TTITLE9=Is there anybody out there ?
EXTD=
EXTT0=
EXTT1=
EXTT2=
EXTT3=
EXTT4=
EXTT5=
EXTT6=
EXTT7=
EXTT8=
EXTT9=
PLAYORDER=
